<mxfile host="app.diagrams.net" modified="2023-06-20T19:59:12.915Z" agent="Mozilla/5.0 (X11; Ubuntu; Linux x86_64; rv:109.0) Gecko/20100101 Firefox/113.0" etag="vr_dBnnSDTHcY3h5rsLt" version="21.5.0" type="device">
  <diagram name="Page-1" id="CpT_m-j7Am7sjx0DqRG0">
    <mxGraphModel dx="2612" dy="1011" grid="1" gridSize="10" guides="1" tooltips="1" connect="1" arrows="1" fold="1" page="1" pageScale="1" pageWidth="850" pageHeight="1100" math="0" shadow="0">
      <root>
        <mxCell id="0" />
        <mxCell id="1" parent="0" />
        <mxCell id="NEY-SCTF0jtiZKWW0wOI-37" value="&lt;div style=&quot;font-size: 16px;&quot;&gt;Environment&lt;/div&gt;" style="rounded=1;whiteSpace=wrap;html=1;labelPosition=center;verticalLabelPosition=top;align=center;verticalAlign=bottom;labelBackgroundColor=none;labelBorderColor=none;horizontal=1;fontStyle=1;fontSize=16;glass=0;arcSize=5;strokeWidth=2;strokeColor=#d6b656;fillColor=#fff2cc;gradientColor=none;" parent="1" vertex="1">
          <mxGeometry x="-115" y="280" width="1480" height="450" as="geometry" />
        </mxCell>
        <mxCell id="4WDnaxyzXQX0K9JCH21A-70" value="NPCPedestrians" style="rounded=1;whiteSpace=wrap;html=1;labelPosition=center;verticalLabelPosition=top;align=center;verticalAlign=bottom;fontSize=14;fillColor=#e1d5e7;strokeColor=#9673a6;" parent="1" vertex="1">
          <mxGeometry x="-90" y="350" width="160" height="290" as="geometry" />
        </mxCell>
        <mxCell id="NEY-SCTF0jtiZKWW0wOI-35" value="Visual Elements (SJK)" style="rounded=1;whiteSpace=wrap;html=1;labelPosition=center;verticalLabelPosition=top;align=center;verticalAlign=bottom;fontSize=14;" parent="1" vertex="1">
          <mxGeometry x="330" y="315" width="190" height="375" as="geometry" />
        </mxCell>
        <mxCell id="NEY-SCTF0jtiZKWW0wOI-2" value="StopLines" style="rounded=1;whiteSpace=wrap;html=1;labelPosition=center;verticalLabelPosition=top;align=center;verticalAlign=bottom;connectable=1;fillColor=#dae8fc;strokeColor=#6c8ebf;fontSize=14;" parent="1" vertex="1">
          <mxGeometry x="550" y="350" width="150" height="290" as="geometry" />
        </mxCell>
        <mxCell id="NEY-SCTF0jtiZKWW0wOI-3" value="&lt;div style=&quot;font-size: 14px;&quot;&gt;TrafficLanes&lt;/div&gt;" style="rounded=1;whiteSpace=wrap;html=1;labelPosition=center;verticalLabelPosition=top;align=center;verticalAlign=bottom;connectable=0;fillColor=#dae8fc;strokeColor=#6c8ebf;fontSize=14;" parent="1" vertex="1">
          <mxGeometry x="730" y="350" width="180" height="290" as="geometry" />
        </mxCell>
        <mxCell id="NEY-SCTF0jtiZKWW0wOI-4" value="&lt;div style=&quot;font-size: 14px;&quot;&gt;TrafficIntersections&lt;/div&gt;" style="rounded=1;whiteSpace=wrap;html=1;labelPosition=center;verticalLabelPosition=top;align=center;verticalAlign=bottom;fillColor=#dae8fc;strokeColor=#6c8ebf;fontSize=14;" parent="1" vertex="1">
          <mxGeometry x="100" y="350" width="180" height="290" as="geometry" />
        </mxCell>
        <mxCell id="NEY-SCTF0jtiZKWW0wOI-5" value="TrafficLights" style="rounded=1;whiteSpace=wrap;html=1;labelPosition=center;verticalLabelPosition=top;align=center;verticalAlign=bottom;fillColor=#dae8fc;strokeColor=#6c8ebf;fontSize=14;" parent="1" vertex="1">
          <mxGeometry x="350" y="350" width="150" height="290" as="geometry" />
        </mxCell>
        <mxCell id="NEY-SCTF0jtiZKWW0wOI-8" value="&lt;div&gt;TrafficSimulator&lt;/div&gt;" style="rounded=1;whiteSpace=wrap;html=1;fillColor=#dae8fc;strokeColor=#6c8ebf;" parent="1" vertex="1">
          <mxGeometry x="990" y="460" width="120" height="40" as="geometry" />
        </mxCell>
        <mxCell id="NEY-SCTF0jtiZKWW0wOI-26" value="NPCVehicles" style="rounded=1;whiteSpace=wrap;html=1;labelPosition=center;verticalLabelPosition=top;align=center;verticalAlign=bottom;fontSize=14;fillColor=#e1d5e7;strokeColor=#9673a6;" parent="1" vertex="1">
          <mxGeometry x="1190" y="350" width="150" height="290" as="geometry" />
        </mxCell>
        <mxCell id="NEY-SCTF0jtiZKWW0wOI-33" value="Directional Light" style="rounded=0;whiteSpace=wrap;html=1;" parent="1" vertex="1">
          <mxGeometry x="990" y="550" width="120" height="40" as="geometry" />
        </mxCell>
        <mxCell id="NEY-SCTF0jtiZKWW0wOI-34" value="&lt;div&gt;Volume&lt;/div&gt;" style="rounded=0;whiteSpace=wrap;html=1;" parent="1" vertex="1">
          <mxGeometry x="990" y="370" width="120" height="40" as="geometry" />
        </mxCell>
        <mxCell id="4WDnaxyzXQX0K9JCH21A-27" value="" style="edgeStyle=orthogonalEdgeStyle;rounded=0;orthogonalLoop=1;jettySize=auto;html=1;entryX=0;entryY=0.5;entryDx=0;entryDy=0;" parent="1" source="4WDnaxyzXQX0K9JCH21A-1" target="4WDnaxyzXQX0K9JCH21A-6" edge="1">
          <mxGeometry relative="1" as="geometry" />
        </mxCell>
        <mxCell id="4WDnaxyzXQX0K9JCH21A-1" value="StopLine" style="shape=process;whiteSpace=wrap;html=1;backgroundOutline=1;" parent="1" vertex="1">
          <mxGeometry x="570" y="430" width="110" height="40" as="geometry" />
        </mxCell>
        <mxCell id="4WDnaxyzXQX0K9JCH21A-28" value="" style="edgeStyle=orthogonalEdgeStyle;rounded=0;orthogonalLoop=1;jettySize=auto;html=1;" parent="1" source="4WDnaxyzXQX0K9JCH21A-2" target="4WDnaxyzXQX0K9JCH21A-11" edge="1">
          <mxGeometry relative="1" as="geometry" />
        </mxCell>
        <mxCell id="4WDnaxyzXQX0K9JCH21A-2" value="StopLine" style="shape=process;whiteSpace=wrap;html=1;backgroundOutline=1;" parent="1" vertex="1">
          <mxGeometry x="570" y="550" width="110" height="40" as="geometry" />
        </mxCell>
        <mxCell id="4WDnaxyzXQX0K9JCH21A-5" value="TrafficLane" style="shape=process;whiteSpace=wrap;html=1;backgroundOutline=1;" parent="1" vertex="1">
          <mxGeometry x="750" y="370" width="110" height="40" as="geometry" />
        </mxCell>
        <mxCell id="4WDnaxyzXQX0K9JCH21A-17" value="" style="edgeStyle=orthogonalEdgeStyle;rounded=0;orthogonalLoop=1;jettySize=auto;html=1;entryX=0.25;entryY=0;entryDx=0;entryDy=0;exitX=0.25;exitY=1;exitDx=0;exitDy=0;" parent="1" source="4WDnaxyzXQX0K9JCH21A-6" target="4WDnaxyzXQX0K9JCH21A-9" edge="1">
          <mxGeometry relative="1" as="geometry" />
        </mxCell>
        <mxCell id="4WDnaxyzXQX0K9JCH21A-34" value="" style="edgeStyle=orthogonalEdgeStyle;rounded=0;orthogonalLoop=1;jettySize=auto;html=1;" parent="1" source="4WDnaxyzXQX0K9JCH21A-6" target="NEY-SCTF0jtiZKWW0wOI-8" edge="1">
          <mxGeometry relative="1" as="geometry">
            <Array as="points">
              <mxPoint x="910" y="450" />
              <mxPoint x="910" y="480" />
            </Array>
          </mxGeometry>
        </mxCell>
        <mxCell id="4WDnaxyzXQX0K9JCH21A-6" value="TrafficLane" style="shape=process;whiteSpace=wrap;html=1;backgroundOutline=1;" parent="1" vertex="1">
          <mxGeometry x="750" y="430" width="110" height="40" as="geometry" />
        </mxCell>
        <mxCell id="4WDnaxyzXQX0K9JCH21A-35" value="" style="edgeStyle=orthogonalEdgeStyle;rounded=0;orthogonalLoop=1;jettySize=auto;html=1;" parent="1" source="4WDnaxyzXQX0K9JCH21A-9" target="NEY-SCTF0jtiZKWW0wOI-8" edge="1">
          <mxGeometry relative="1" as="geometry">
            <Array as="points">
              <mxPoint x="910" y="510" />
              <mxPoint x="910" y="480" />
            </Array>
          </mxGeometry>
        </mxCell>
        <mxCell id="4WDnaxyzXQX0K9JCH21A-9" value="TrafficLane" style="shape=process;whiteSpace=wrap;html=1;backgroundOutline=1;" parent="1" vertex="1">
          <mxGeometry x="750" y="490" width="110" height="40" as="geometry" />
        </mxCell>
        <mxCell id="4WDnaxyzXQX0K9JCH21A-10" value="" style="endArrow=none;dashed=1;html=1;dashPattern=1 3;strokeWidth=2;rounded=0;" parent="1" edge="1">
          <mxGeometry width="50" height="50" relative="1" as="geometry">
            <mxPoint x="804.71" y="630" as="sourcePoint" />
            <mxPoint x="804.71" y="600" as="targetPoint" />
          </mxGeometry>
        </mxCell>
        <mxCell id="4WDnaxyzXQX0K9JCH21A-21" value="" style="edgeStyle=orthogonalEdgeStyle;rounded=0;orthogonalLoop=1;jettySize=auto;html=1;entryX=1;entryY=0.5;entryDx=0;entryDy=0;dashed=1;strokeWidth=1;" parent="1" source="4WDnaxyzXQX0K9JCH21A-11" target="4WDnaxyzXQX0K9JCH21A-5" edge="1">
          <mxGeometry relative="1" as="geometry">
            <mxPoint x="995" y="590" as="targetPoint" />
            <Array as="points">
              <mxPoint x="890" y="570" />
              <mxPoint x="890" y="390" />
            </Array>
          </mxGeometry>
        </mxCell>
        <mxCell id="4WDnaxyzXQX0K9JCH21A-11" value="TrafficLane" style="shape=process;whiteSpace=wrap;html=1;backgroundOutline=1;" parent="1" vertex="1">
          <mxGeometry x="750" y="550" width="110" height="40" as="geometry" />
        </mxCell>
        <mxCell id="4WDnaxyzXQX0K9JCH21A-18" value="" style="edgeStyle=orthogonalEdgeStyle;rounded=0;orthogonalLoop=1;jettySize=auto;html=1;entryX=0.25;entryY=0;entryDx=0;entryDy=0;exitX=0.25;exitY=1;exitDx=0;exitDy=0;" parent="1" source="4WDnaxyzXQX0K9JCH21A-5" target="4WDnaxyzXQX0K9JCH21A-6" edge="1">
          <mxGeometry relative="1" as="geometry">
            <mxPoint x="788" y="490" as="sourcePoint" />
            <mxPoint x="788" y="520" as="targetPoint" />
          </mxGeometry>
        </mxCell>
        <mxCell id="4WDnaxyzXQX0K9JCH21A-19" value="" style="edgeStyle=orthogonalEdgeStyle;rounded=0;orthogonalLoop=1;jettySize=auto;html=1;entryX=0.75;entryY=1;entryDx=0;entryDy=0;exitX=0.75;exitY=0;exitDx=0;exitDy=0;" parent="1" source="4WDnaxyzXQX0K9JCH21A-6" target="4WDnaxyzXQX0K9JCH21A-5" edge="1">
          <mxGeometry relative="1" as="geometry">
            <mxPoint x="843" y="520" as="sourcePoint" />
            <mxPoint x="843" y="490" as="targetPoint" />
          </mxGeometry>
        </mxCell>
        <mxCell id="4WDnaxyzXQX0K9JCH21A-23" value="Right Of Way" style="text;html=1;strokeColor=none;fillColor=none;align=center;verticalAlign=middle;whiteSpace=wrap;rounded=0;" parent="1" vertex="1">
          <mxGeometry x="765" y="470" width="115" height="30" as="geometry" />
        </mxCell>
        <mxCell id="4WDnaxyzXQX0K9JCH21A-24" value="Next" style="text;html=1;strokeColor=none;fillColor=none;align=center;verticalAlign=middle;whiteSpace=wrap;rounded=0;" parent="1" vertex="1">
          <mxGeometry x="820" y="410" width="60" height="30" as="geometry" />
        </mxCell>
        <mxCell id="4WDnaxyzXQX0K9JCH21A-25" value="Prev" style="text;html=1;strokeColor=none;fillColor=none;align=center;verticalAlign=middle;whiteSpace=wrap;rounded=0;" parent="1" vertex="1">
          <mxGeometry x="765" y="410" width="60" height="30" as="geometry" />
        </mxCell>
        <mxCell id="4WDnaxyzXQX0K9JCH21A-26" value="Next" style="text;html=1;strokeColor=none;fillColor=none;align=center;verticalAlign=middle;whiteSpace=wrap;rounded=0;" parent="1" vertex="1">
          <mxGeometry x="845" y="550" width="60" height="30" as="geometry" />
        </mxCell>
        <mxCell id="4WDnaxyzXQX0K9JCH21A-30" value="StopLine" style="shape=process;whiteSpace=wrap;html=1;backgroundOutline=1;" parent="1" vertex="1">
          <mxGeometry x="570" y="490" width="110" height="40" as="geometry" />
        </mxCell>
        <mxCell id="4WDnaxyzXQX0K9JCH21A-31" value="StopLine" style="shape=process;whiteSpace=wrap;html=1;backgroundOutline=1;" parent="1" vertex="1">
          <mxGeometry x="570" y="370" width="110" height="40" as="geometry" />
        </mxCell>
        <mxCell id="4WDnaxyzXQX0K9JCH21A-32" value="" style="endArrow=none;dashed=1;html=1;dashPattern=1 3;strokeWidth=2;rounded=0;" parent="1" edge="1">
          <mxGeometry width="50" height="50" relative="1" as="geometry">
            <mxPoint x="624.71" y="630" as="sourcePoint" />
            <mxPoint x="624.71" y="600" as="targetPoint" />
          </mxGeometry>
        </mxCell>
        <mxCell id="4WDnaxyzXQX0K9JCH21A-40" value="" style="edgeStyle=orthogonalEdgeStyle;rounded=0;orthogonalLoop=1;jettySize=auto;html=1;" parent="1" source="4WDnaxyzXQX0K9JCH21A-36" target="4WDnaxyzXQX0K9JCH21A-31" edge="1">
          <mxGeometry relative="1" as="geometry" />
        </mxCell>
        <mxCell id="4WDnaxyzXQX0K9JCH21A-59" value="" style="edgeStyle=orthogonalEdgeStyle;rounded=0;orthogonalLoop=1;jettySize=auto;html=1;entryX=1;entryY=0.25;entryDx=0;entryDy=0;" parent="1" source="4WDnaxyzXQX0K9JCH21A-36" target="4WDnaxyzXQX0K9JCH21A-54" edge="1">
          <mxGeometry relative="1" as="geometry" />
        </mxCell>
        <mxCell id="4WDnaxyzXQX0K9JCH21A-36" value="TrafficLight" style="shape=process;whiteSpace=wrap;html=1;backgroundOutline=1;" parent="1" vertex="1">
          <mxGeometry x="370" y="370" width="110" height="40" as="geometry" />
        </mxCell>
        <mxCell id="4WDnaxyzXQX0K9JCH21A-41" value="" style="edgeStyle=orthogonalEdgeStyle;rounded=0;orthogonalLoop=1;jettySize=auto;html=1;" parent="1" source="4WDnaxyzXQX0K9JCH21A-37" target="4WDnaxyzXQX0K9JCH21A-1" edge="1">
          <mxGeometry relative="1" as="geometry" />
        </mxCell>
        <mxCell id="4WDnaxyzXQX0K9JCH21A-60" value="" style="edgeStyle=orthogonalEdgeStyle;rounded=0;orthogonalLoop=1;jettySize=auto;html=1;entryX=1;entryY=0.75;entryDx=0;entryDy=0;" parent="1" source="4WDnaxyzXQX0K9JCH21A-37" target="4WDnaxyzXQX0K9JCH21A-54" edge="1">
          <mxGeometry relative="1" as="geometry" />
        </mxCell>
        <mxCell id="4WDnaxyzXQX0K9JCH21A-37" value="TrafficLight" style="shape=process;whiteSpace=wrap;html=1;backgroundOutline=1;" parent="1" vertex="1">
          <mxGeometry x="370" y="430" width="110" height="40" as="geometry" />
        </mxCell>
        <mxCell id="4WDnaxyzXQX0K9JCH21A-62" value="" style="edgeStyle=orthogonalEdgeStyle;rounded=0;orthogonalLoop=1;jettySize=auto;html=1;entryX=1;entryY=0.25;entryDx=0;entryDy=0;" parent="1" source="4WDnaxyzXQX0K9JCH21A-38" target="4WDnaxyzXQX0K9JCH21A-61" edge="1">
          <mxGeometry relative="1" as="geometry" />
        </mxCell>
        <mxCell id="4WDnaxyzXQX0K9JCH21A-38" value="TrafficLight" style="shape=process;whiteSpace=wrap;html=1;backgroundOutline=1;" parent="1" vertex="1">
          <mxGeometry x="370" y="490" width="110" height="40" as="geometry" />
        </mxCell>
        <mxCell id="4WDnaxyzXQX0K9JCH21A-43" value="" style="edgeStyle=orthogonalEdgeStyle;rounded=0;orthogonalLoop=1;jettySize=auto;html=1;" parent="1" source="4WDnaxyzXQX0K9JCH21A-39" target="4WDnaxyzXQX0K9JCH21A-2" edge="1">
          <mxGeometry relative="1" as="geometry" />
        </mxCell>
        <mxCell id="4WDnaxyzXQX0K9JCH21A-63" value="" style="edgeStyle=orthogonalEdgeStyle;rounded=0;orthogonalLoop=1;jettySize=auto;html=1;entryX=1;entryY=0.75;entryDx=0;entryDy=0;" parent="1" source="4WDnaxyzXQX0K9JCH21A-39" target="4WDnaxyzXQX0K9JCH21A-61" edge="1">
          <mxGeometry relative="1" as="geometry" />
        </mxCell>
        <mxCell id="4WDnaxyzXQX0K9JCH21A-39" value="TrafficLight" style="shape=process;whiteSpace=wrap;html=1;backgroundOutline=1;" parent="1" vertex="1">
          <mxGeometry x="370" y="550" width="110" height="40" as="geometry" />
        </mxCell>
        <mxCell id="4WDnaxyzXQX0K9JCH21A-44" value="" style="endArrow=none;dashed=1;html=1;dashPattern=1 3;strokeWidth=2;rounded=0;" parent="1" edge="1">
          <mxGeometry width="50" height="50" relative="1" as="geometry">
            <mxPoint x="424.5" y="630" as="sourcePoint" />
            <mxPoint x="424.5" y="600" as="targetPoint" />
          </mxGeometry>
        </mxCell>
        <mxCell id="4WDnaxyzXQX0K9JCH21A-53" value="" style="endArrow=none;dashed=1;html=1;dashPattern=1 3;strokeWidth=2;rounded=0;" parent="1" edge="1">
          <mxGeometry width="50" height="50" relative="1" as="geometry">
            <mxPoint x="424.88" y="680" as="sourcePoint" />
            <mxPoint x="424.88" y="650" as="targetPoint" />
          </mxGeometry>
        </mxCell>
        <mxCell id="4WDnaxyzXQX0K9JCH21A-54" value="&lt;div&gt;TrafficIntersection&lt;/div&gt;" style="shape=process;whiteSpace=wrap;html=1;backgroundOutline=1;" parent="1" vertex="1">
          <mxGeometry x="120" y="370" width="140" height="100" as="geometry" />
        </mxCell>
        <mxCell id="4WDnaxyzXQX0K9JCH21A-61" value="&lt;div&gt;TrafficIntersection&lt;/div&gt;" style="shape=process;whiteSpace=wrap;html=1;backgroundOutline=1;" parent="1" vertex="1">
          <mxGeometry x="120" y="490" width="140" height="100" as="geometry" />
        </mxCell>
        <mxCell id="4WDnaxyzXQX0K9JCH21A-64" value="" style="endArrow=none;dashed=1;html=1;dashPattern=1 3;strokeWidth=2;rounded=0;" parent="1" edge="1">
          <mxGeometry width="50" height="50" relative="1" as="geometry">
            <mxPoint x="189.9" y="630" as="sourcePoint" />
            <mxPoint x="189.9" y="600" as="targetPoint" />
          </mxGeometry>
        </mxCell>
        <mxCell id="4WDnaxyzXQX0K9JCH21A-65" value="NPCPedestrian" style="shape=process;whiteSpace=wrap;html=1;backgroundOutline=1;" parent="1" vertex="1">
          <mxGeometry x="-65" y="370" width="110" height="40" as="geometry" />
        </mxCell>
        <mxCell id="4WDnaxyzXQX0K9JCH21A-66" value="NPCPedestrian" style="shape=process;whiteSpace=wrap;html=1;backgroundOutline=1;" parent="1" vertex="1">
          <mxGeometry x="-65" y="430" width="110" height="40" as="geometry" />
        </mxCell>
        <mxCell id="4WDnaxyzXQX0K9JCH21A-67" value="NPCPedestrian" style="shape=process;whiteSpace=wrap;html=1;backgroundOutline=1;" parent="1" vertex="1">
          <mxGeometry x="-65" y="490" width="110" height="40" as="geometry" />
        </mxCell>
        <mxCell id="4WDnaxyzXQX0K9JCH21A-68" value="NPCPedestrian" style="shape=process;whiteSpace=wrap;html=1;backgroundOutline=1;" parent="1" vertex="1">
          <mxGeometry x="-65" y="550" width="110" height="40" as="geometry" />
        </mxCell>
        <mxCell id="4WDnaxyzXQX0K9JCH21A-69" value="" style="endArrow=none;dashed=1;html=1;dashPattern=1 3;strokeWidth=2;rounded=0;" parent="1" edge="1">
          <mxGeometry width="50" height="50" relative="1" as="geometry">
            <mxPoint x="-10.120000000000001" y="630" as="sourcePoint" />
            <mxPoint x="-10.120000000000001" y="600" as="targetPoint" />
          </mxGeometry>
        </mxCell>
        <mxCell id="4WDnaxyzXQX0K9JCH21A-74" value="" style="edgeStyle=orthogonalEdgeStyle;rounded=0;orthogonalLoop=1;jettySize=auto;html=1;" parent="1" source="4WDnaxyzXQX0K9JCH21A-71" edge="1">
          <mxGeometry relative="1" as="geometry">
            <mxPoint x="815" y="640" as="targetPoint" />
          </mxGeometry>
        </mxCell>
        <mxCell id="4WDnaxyzXQX0K9JCH21A-81" value="" style="edgeStyle=orthogonalEdgeStyle;rounded=0;orthogonalLoop=1;jettySize=auto;html=1;entryX=0.5;entryY=1;entryDx=0;entryDy=0;exitX=0;exitY=0.5;exitDx=0;exitDy=0;" parent="1" source="4WDnaxyzXQX0K9JCH21A-71" target="NEY-SCTF0jtiZKWW0wOI-2" edge="1">
          <mxGeometry relative="1" as="geometry">
            <mxPoint x="590" y="830" as="targetPoint" />
            <Array as="points">
              <mxPoint x="625" y="780" />
            </Array>
          </mxGeometry>
        </mxCell>
        <mxCell id="4WDnaxyzXQX0K9JCH21A-71" value="&lt;div&gt;Lanelet2&lt;/div&gt;" style="shape=parallelogram;perimeter=parallelogramPerimeter;whiteSpace=wrap;html=1;fixedSize=1;" parent="1" vertex="1">
          <mxGeometry x="660" y="760" width="110" height="40" as="geometry" />
        </mxCell>
        <mxCell id="4WDnaxyzXQX0K9JCH21A-73" value="" style="edgeStyle=orthogonalEdgeStyle;rounded=0;orthogonalLoop=1;jettySize=auto;html=1;" parent="1" source="4WDnaxyzXQX0K9JCH21A-72" target="NEY-SCTF0jtiZKWW0wOI-35" edge="1">
          <mxGeometry relative="1" as="geometry" />
        </mxCell>
        <mxCell id="4WDnaxyzXQX0K9JCH21A-72" value="*.fbx files" style="shape=parallelogram;perimeter=parallelogramPerimeter;whiteSpace=wrap;html=1;fixedSize=1;" parent="1" vertex="1">
          <mxGeometry x="370" y="760" width="110" height="40" as="geometry" />
        </mxCell>
        <mxCell id="4WDnaxyzXQX0K9JCH21A-75" value="Spawnable Lines References" style="text;html=1;strokeColor=none;fillColor=none;align=center;verticalAlign=middle;whiteSpace=wrap;rounded=0;" parent="1" vertex="1">
          <mxGeometry x="915" y="441" width="80" height="30" as="geometry" />
        </mxCell>
        <mxCell id="4WDnaxyzXQX0K9JCH21A-76" value="NPCVehicle" style="shape=process;whiteSpace=wrap;html=1;backgroundOutline=1;rounded=0;" parent="1" vertex="1">
          <mxGeometry x="1210" y="370" width="110" height="40" as="geometry" />
        </mxCell>
        <mxCell id="4WDnaxyzXQX0K9JCH21A-77" value="NPCVehicle" style="shape=process;whiteSpace=wrap;html=1;backgroundOutline=1;rounded=0;" parent="1" vertex="1">
          <mxGeometry x="1210" y="430" width="110" height="40" as="geometry" />
        </mxCell>
        <mxCell id="4WDnaxyzXQX0K9JCH21A-78" value="NPCVehicle" style="shape=process;whiteSpace=wrap;html=1;backgroundOutline=1;rounded=0;" parent="1" vertex="1">
          <mxGeometry x="1210" y="490" width="110" height="40" as="geometry" />
        </mxCell>
        <mxCell id="iR7XMXZ2pqz_NEsJ3RQj-1" value="" style="endArrow=none;dashed=1;html=1;dashPattern=1 3;strokeWidth=2;rounded=0;" edge="1" parent="1">
          <mxGeometry width="50" height="50" relative="1" as="geometry">
            <mxPoint x="1264.95" y="628" as="sourcePoint" />
            <mxPoint x="1264.8899999999999" y="600" as="targetPoint" />
          </mxGeometry>
        </mxCell>
        <mxCell id="iR7XMXZ2pqz_NEsJ3RQj-2" value="NPCVehicle" style="shape=process;whiteSpace=wrap;html=1;backgroundOutline=1;rounded=0;" vertex="1" parent="1">
          <mxGeometry x="1210" y="550" width="110" height="40" as="geometry" />
        </mxCell>
        <mxCell id="iR7XMXZ2pqz_NEsJ3RQj-3" value="" style="endArrow=classic;html=1;rounded=0;exitX=0;exitY=0.5;exitDx=0;exitDy=0;entryX=1;entryY=0.5;entryDx=0;entryDy=0;" edge="1" parent="1" source="4WDnaxyzXQX0K9JCH21A-76" target="NEY-SCTF0jtiZKWW0wOI-8">
          <mxGeometry width="50" height="50" relative="1" as="geometry">
            <mxPoint x="730" y="590" as="sourcePoint" />
            <mxPoint x="780" y="540" as="targetPoint" />
            <Array as="points">
              <mxPoint x="1170" y="390" />
              <mxPoint x="1170" y="410" />
              <mxPoint x="1170" y="440" />
              <mxPoint x="1170" y="480" />
            </Array>
          </mxGeometry>
        </mxCell>
        <mxCell id="iR7XMXZ2pqz_NEsJ3RQj-5" value="" style="endArrow=classic;html=1;rounded=0;exitX=0;exitY=0.5;exitDx=0;exitDy=0;entryX=1;entryY=0.5;entryDx=0;entryDy=0;" edge="1" parent="1" source="4WDnaxyzXQX0K9JCH21A-77" target="NEY-SCTF0jtiZKWW0wOI-8">
          <mxGeometry width="50" height="50" relative="1" as="geometry">
            <mxPoint x="950" y="560" as="sourcePoint" />
            <mxPoint x="1000" y="510" as="targetPoint" />
            <Array as="points">
              <mxPoint x="1170" y="450" />
              <mxPoint x="1170" y="470" />
              <mxPoint x="1170" y="480" />
            </Array>
          </mxGeometry>
        </mxCell>
        <mxCell id="iR7XMXZ2pqz_NEsJ3RQj-7" value="" style="endArrow=classic;html=1;rounded=0;entryX=1;entryY=0.5;entryDx=0;entryDy=0;exitX=0;exitY=0.5;exitDx=0;exitDy=0;" edge="1" parent="1" source="4WDnaxyzXQX0K9JCH21A-78" target="NEY-SCTF0jtiZKWW0wOI-8">
          <mxGeometry width="50" height="50" relative="1" as="geometry">
            <mxPoint x="950" y="560" as="sourcePoint" />
            <mxPoint x="1000" y="510" as="targetPoint" />
            <Array as="points">
              <mxPoint x="1170" y="510" />
              <mxPoint x="1170" y="480" />
            </Array>
          </mxGeometry>
        </mxCell>
        <mxCell id="iR7XMXZ2pqz_NEsJ3RQj-8" value="" style="endArrow=classic;html=1;rounded=0;entryX=1;entryY=0.5;entryDx=0;entryDy=0;exitX=0;exitY=0.5;exitDx=0;exitDy=0;" edge="1" parent="1" source="iR7XMXZ2pqz_NEsJ3RQj-2" target="NEY-SCTF0jtiZKWW0wOI-8">
          <mxGeometry width="50" height="50" relative="1" as="geometry">
            <mxPoint x="950" y="560" as="sourcePoint" />
            <mxPoint x="1000" y="510" as="targetPoint" />
            <Array as="points">
              <mxPoint x="1170" y="570" />
              <mxPoint x="1170" y="480" />
            </Array>
          </mxGeometry>
        </mxCell>
        <mxCell id="iR7XMXZ2pqz_NEsJ3RQj-9" value="Control" style="text;html=1;strokeColor=none;fillColor=none;align=center;verticalAlign=middle;whiteSpace=wrap;rounded=0;" vertex="1" parent="1">
          <mxGeometry x="1100" y="458" width="80" height="30" as="geometry" />
        </mxCell>
        <mxCell id="iR7XMXZ2pqz_NEsJ3RQj-11" value="Control" style="text;html=1;strokeColor=none;fillColor=none;align=center;verticalAlign=middle;whiteSpace=wrap;rounded=0;" vertex="1" parent="1">
          <mxGeometry x="262" y="422" width="80" height="30" as="geometry" />
        </mxCell>
        <mxCell id="iR7XMXZ2pqz_NEsJ3RQj-13" value="Control" style="text;html=1;strokeColor=none;fillColor=none;align=center;verticalAlign=middle;whiteSpace=wrap;rounded=0;" vertex="1" parent="1">
          <mxGeometry x="262" y="368" width="80" height="30" as="geometry" />
        </mxCell>
        <mxCell id="iR7XMXZ2pqz_NEsJ3RQj-14" value="Control" style="text;html=1;strokeColor=none;fillColor=none;align=center;verticalAlign=middle;whiteSpace=wrap;rounded=0;" vertex="1" parent="1">
          <mxGeometry x="262" y="487.5" width="80" height="30" as="geometry" />
        </mxCell>
        <mxCell id="iR7XMXZ2pqz_NEsJ3RQj-15" value="Control" style="text;html=1;strokeColor=none;fillColor=none;align=center;verticalAlign=middle;whiteSpace=wrap;rounded=0;" vertex="1" parent="1">
          <mxGeometry x="262" y="543" width="80" height="30" as="geometry" />
        </mxCell>
        <mxCell id="iR7XMXZ2pqz_NEsJ3RQj-17" value="" style="edgeStyle=orthogonalEdgeStyle;rounded=0;orthogonalLoop=1;jettySize=auto;html=1;" edge="1" parent="1" source="iR7XMXZ2pqz_NEsJ3RQj-16" target="NEY-SCTF0jtiZKWW0wOI-26">
          <mxGeometry relative="1" as="geometry" />
        </mxCell>
        <mxCell id="iR7XMXZ2pqz_NEsJ3RQj-16" value="*.fbx files" style="shape=parallelogram;perimeter=parallelogramPerimeter;whiteSpace=wrap;html=1;fixedSize=1;" vertex="1" parent="1">
          <mxGeometry x="1210" y="760" width="110" height="40" as="geometry" />
        </mxCell>
        <mxCell id="iR7XMXZ2pqz_NEsJ3RQj-20" value="" style="edgeStyle=orthogonalEdgeStyle;rounded=0;orthogonalLoop=1;jettySize=auto;html=1;entryX=0.5;entryY=1;entryDx=0;entryDy=0;" edge="1" parent="1" source="iR7XMXZ2pqz_NEsJ3RQj-18" target="4WDnaxyzXQX0K9JCH21A-70">
          <mxGeometry relative="1" as="geometry" />
        </mxCell>
        <mxCell id="iR7XMXZ2pqz_NEsJ3RQj-18" value="*.fbx files" style="shape=parallelogram;perimeter=parallelogramPerimeter;whiteSpace=wrap;html=1;fixedSize=1;" vertex="1" parent="1">
          <mxGeometry x="-65" y="760" width="110" height="40" as="geometry" />
        </mxCell>
      </root>
    </mxGraphModel>
  </diagram>
</mxfile>
